<svg xmlns="http://www.w3.org/2000/svg" xmlns:xlink="http://www.w3.org/1999/xlink" width="500" zoomAndPan="magnify" viewBox="0 0 375 374.999991" height="500" preserveAspectRatio="xMidYMid meet" version="1.0"><defs><g/><clipPath id="c1f13b8342"><path d="M 187.5 0 C 83.945312 0 0 83.945312 0 187.5 C 0 291.054688 83.945312 375 187.5 375 C 291.054688 375 375 291.054688 375 187.5 C 375 83.945312 291.054688 0 187.5 0 Z M 187.5 0 " clip-rule="nonzero"/></clipPath></defs><g clip-path="url(#c1f13b8342)"><rect x="-37.5" width="450" fill="#eb5e28" y="-37.499999" height="449.999989" fill-opacity="1"/></g><g fill="#fffcf2" fill-opacity="1"><g transform="translate(50.800782, 254.999983)"><g><path d="M 112.328125 0 L 81.96875 -42.6875 C 78.550781 -42.3125 75.007812 -42.125 71.34375 -42.125 L 35.671875 -42.125 L 35.671875 0 L 21.625 0 L 21.625 -132.8125 L 71.34375 -132.8125 C 88.289062 -132.8125 101.570312 -128.765625 111.1875 -120.671875 C 120.800781 -112.578125 125.609375 -101.445312 125.609375 -87.28125 C 125.609375 -76.90625 122.984375 -68.144531 117.734375 -61 C 112.484375 -53.851562 104.988281 -48.695312 95.25 -45.53125 L 127.6875 0 Z M 70.953125 -54.078125 C 84.109375 -54.078125 94.164062 -56.984375 101.125 -62.796875 C 108.082031 -68.617188 111.5625 -76.78125 111.5625 -87.28125 C 111.5625 -98.03125 108.082031 -106.28125 101.125 -112.03125 C 94.164062 -117.789062 84.109375 -120.671875 70.953125 -120.671875 L 35.671875 -120.671875 L 35.671875 -54.078125 Z M 70.953125 -54.078125 "/></g></g></g><g fill="#fffcf2" fill-opacity="1"><g transform="translate(187.973103, 254.999983)"><g><path d="M 71.34375 -132.8125 C 88.289062 -132.8125 101.570312 -128.765625 111.1875 -120.671875 C 120.800781 -112.578125 125.609375 -101.445312 125.609375 -87.28125 C 125.609375 -73.113281 120.800781 -62.015625 111.1875 -53.984375 C 101.570312 -45.953125 88.289062 -41.9375 71.34375 -41.9375 L 35.671875 -41.9375 L 35.671875 0 L 21.625 0 L 21.625 -132.8125 Z M 70.953125 -54.265625 C 84.109375 -54.265625 94.164062 -57.140625 101.125 -62.890625 C 108.082031 -68.648438 111.5625 -76.78125 111.5625 -87.28125 C 111.5625 -98.03125 108.082031 -106.28125 101.125 -112.03125 C 94.164062 -117.789062 84.109375 -120.671875 70.953125 -120.671875 L 35.671875 -120.671875 L 35.671875 -54.265625 Z M 70.953125 -54.265625 "/></g></g></g></svg>